<svg xmlns="http://www.w3.org/2000/svg" viewBox="0 0 1008.39 342.33"><defs><style>.cls-1{fill:#020202;}.cls-2{fill:#606060;}.cls-3{fill:#5c5c5c;}.cls-4{fill:#555;}.cls-5{fill:gray;}.cls-6{fill:#1e2188;}.cls-7{fill:#1e2189;}.cls-8{fill:#e60316;}.cls-9{fill:#1d2088;}.cls-10{fill:#030303;}.cls-11{fill:#e60114;}.cls-12{fill:#e60215;}.cls-13{fill:#e50114;}.cls-14{fill:#050505;}.cls-15{fill:#040404;}.cls-16{fill:#010101;}.cls-17{fill:#080808;}.cls-18{fill:#fbfbfb;}</style></defs><g id="Layer_2" data-name="Layer 2"><g id="Layer_1-2" data-name="Layer 1"><path class="cls-1" d="M391.4,342.33c-1.18-.32-2.34-.72-3.53-.94-10.14-1.9-18.66-6.47-24.83-14.93a43.44,43.44,0,0,1-7.37-17.52c-2.15-10.94-1.52-21.69,3.16-31.9,6.26-13.67,17.17-21,32.06-22.54A54.39,54.39,0,0,1,411.33,256c11,3.09,18,10.18,21.07,21.18a13.45,13.45,0,0,1,.31,1.4,2.49,2.49,0,0,1-.1.67L416,282.43a11.42,11.42,0,0,1-.55-1.13c-2.74-7.43-8.16-11.52-15.95-12.19a31.43,31.43,0,0,0-9.28.58c-8.68,1.91-14.12,7.51-16.44,16a44.77,44.77,0,0,0,.46,25.54c3.57,11.42,13.57,17.84,26.34,16a37,37,0,0,0,14.57-5.81,3,3,0,0,0,1.56-2.93c-.1-2.86,0-5.73,0-8.83h-19.4V295.27h36.66c0,.74.09,1.36.09,2,0,9.91,0,19.83.05,29.74a4.1,4.1,0,0,1-1.8,3.6c-6.14,4.82-13.18,7.77-20.63,9.79-2.53.69-5.17,1-7.75,1.49a3.84,3.84,0,0,0-1,.46h-1.44c-.09-.13-.17-.37-.26-.37-2.55,0-5.09,0-7.64,0-.08,0-.17.24-.26.37Z"/><path class="cls-1" d="M127.53,342.33c-1.09-.32-2.17-.73-3.28-.94C110,338.69,99.76,331,94.48,317.23a50.53,50.53,0,0,1-2.65-9.42c-1.78-10.19-1.23-20.25,2.93-29.85C101,263.71,112,256,127.4,254.49a52.54,52.54,0,0,1,21.8,2c11,3.6,17.4,11.32,20.06,22.72l-17,3.2c-.22-.49-.4-.83-.54-1.19-2.72-7.32-8.06-11.3-15.74-12.16a26.57,26.57,0,0,0-11.37,1.07c-8,2.6-12.76,8.27-14.74,16.25a47,47,0,0,0,.14,23c3.37,13.39,14.82,20.44,29,17.36a37.59,37.59,0,0,0,12.44-5.45,2.78,2.78,0,0,0,1.49-2.71c-.11-2.94,0-5.88,0-9.11H133.45V295.28h36.74c0,.69.09,1.32.09,1.94,0,10,0,20,.05,30a3.88,3.88,0,0,1-1.71,3.39A56.88,56.88,0,0,1,148,340.37c-2.6.71-5.32,1-8,1.48-3.28,0-6.57,0-9.85,0-.24,0-.47.31-.7.48Z"/><path class="cls-1" d="M1008.39,305.39a7.85,7.85,0,0,0-.48,1.44,44.1,44.1,0,0,1-7.77,20.85c-5.11,7.21-12.27,11-20.88,12.21a87.74,87.74,0,0,1-10.75.78c-9.5.11-19,0-28.52,0h-1.56V256a3.68,3.68,0,0,1,.84-.19c12,.06,24,.1,36,.23a33.89,33.89,0,0,1,10.11,1.72,28.78,28.78,0,0,1,14.47,10.17,40.4,40.4,0,0,1,8.13,22.14l.45,4.82Zm-58.77,25.33c6.66,0,13,0,19.44,0,2.07,0,4.15-.19,6.21-.39,8.61-.85,14.81-5.05,18.16-13.16.37-.88.7-1.78,1-2.68a42.61,42.61,0,0,0,2.19-11,57.47,57.47,0,0,0-1.21-19c-2.24-8.68-8.26-18.3-22-18.46l-23-.26a2.87,2.87,0,0,0-.83.26Z"/><path class="cls-2" d="M227.8,341.85a1,1,0,0,0-.12.32c0,.05.08.11.12.16H213.41a2.08,2.08,0,0,0,.12-.32c0-.05-.08-.11-.12-.16Z"/><path class="cls-3" d="M129.45,342.33c.23-.17.46-.48.7-.48,3.28,0,6.57,0,9.85,0a1.75,1.75,0,0,0-.12.32c0,.05.08.11.12.16Z"/><path class="cls-4" d="M393.32,342.33c.09-.13.18-.37.26-.37,2.55,0,5.09,0,7.64,0,.09,0,.17.24.26.37Z"/><path class="cls-5" d="M1008.39,294.84l-.45-4.82.45,0Z"/><path class="cls-6" d="M660,212.93l-67.55-22.1V.21c.76.43,1.38.73,1.95,1.1q31.88,20.22,63.77,40.44A3.54,3.54,0,0,1,660,45.19q-.06,82.62,0,165.22Z"/><path class="cls-7" d="M386.77,164.87c2.33-4.54,4.62-9.1,7-13.63l77.38-149c.33-.63.69-1.25,1.24-2.26l29,55.87c-.53.56-1,1.1-1.49,1.59Q477,79.6,454,101.71a5.43,5.43,0,0,0-1.83,4.36q.09,28.05,0,56.09c0,.94-.14,1.89-.21,2.84q-17.39,0-34.76-.05Q402,164.94,386.77,164.87Z"/><path class="cls-8" d="M585.52,5.36v190.4l51,16.71-.07.32H568.25c0-.75-.11-1.45-.11-2.15q0-93.85,0-187.71a4.18,4.18,0,0,1,1.55-3.5c4.87-4.26,9.66-8.62,14.49-12.94C584.43,6.23,584.74,6,585.52,5.36Z"/><path class="cls-9" d="M546,212.76l-18,.12h-7V49.42l24.86,12.66c0,1,.1,2.07.1,3.1Q546,139,546,212.76Z"/><path class="cls-10" d="M272,255.74c5.3,0,10.4,0,15.51,0a2.31,2.31,0,0,1,1.5.91c.76,1,1.36,2.16,2,3.25l30.75,50a7.15,7.15,0,0,0,1.34,1.7c.37-3.72.26-7.41.28-11.1s0-7.35,0-11V255.88h15.83v84.63a15,15,0,0,1-1.73.19c-4.4,0-8.8-.09-13.19.06a3.42,3.42,0,0,1-3.4-2q-15.64-25.53-31.39-51a5.91,5.91,0,0,0-1.73-1.93v54.7H272Z"/><path class="cls-11" d="M386.77,164.87q15.23,0,30.45.08,17.38,0,34.76.05a12.9,12.9,0,0,1,.21,1.64q0,22.4.05,44.8c0,.39,0,.77-.06,1.29H361.93c.26-.64.42-1.16.67-1.63q11.76-22.6,23.53-45.22C386.32,165.53,386.56,165.21,386.77,164.87Z"/><path class="cls-12" d="M513.75,212.79H489.07c-.05-.67-.15-1.29-.15-1.9q0-65.94,0-131.89a3.65,3.65,0,0,1,1.1-3q11.37-10.84,22.65-21.76c.26-.26.56-.47,1.1-.93Z"/><path class="cls-10" d="M24.82,321.43c-2.36,6.39-4.71,12.74-7.09,19.16H0c.13-1.69,31.07-81.81,32.74-84.77.26,0,.57-.07.88-.07H50.69Q67.63,298,84.59,340.25c-1.71.58-11.84.76-18.37.34l-7.34-19.16Zm5.29-14.57H53.24L41.55,275.61Z"/><path class="cls-1" d="M227.8,341.85H213.41a31.7,31.7,0,0,1-10.91-2.52c-9.24-4.17-14.5-11.29-15.42-21.41-.47-5.16-.84-10.36-.88-15.54-.12-14.95,0-29.9,0-44.84v-1.41c1.77-.47,13.81-.59,17.24-.16v2.52c0,13.91,0,27.82,0,41.72,0,4.48.17,9,.39,13.42a13.63,13.63,0,0,0,10.44,13.06,23.49,23.49,0,0,0,13-.1,11.73,11.73,0,0,0,8.68-10.6c.32-4.13.51-8.29.53-12.44.06-14.95,0-29.9,0-44.84v-2.8H253.6c0,.65.12,1.26.12,1.88,0,15.18.07,30.37-.05,45.56a152.41,152.41,0,0,1-.9,15.54c-1.27,11.41-7.78,18.86-18.86,21.86C231.92,341.29,229.84,341.49,227.8,341.85Z"/><path class="cls-13" d="M546,212.76q0-73.78,0-147.58c0-1-.06-2.07-.1-3.1,0-6.39.11-12.78,0-19.17a4.35,4.35,0,0,1,1.66-3.68c4.7-4.1,9.31-8.29,14-12.45.4-.36.83-.7,1.28-1.07.56,1.85.81,180.21.27,187.15C557.38,212.86,551.67,213,546,212.76Z"/><path class="cls-11" d="M484,82.08V212.86c-8.24,0-16.42,0-24.74,0-.06-.76-.15-1.37-.15-2q0-51.57,0-103.13a3.63,3.63,0,0,1,1.09-3c7.58-7.22,15.1-14.51,22.64-21.77C483,82.76,483.36,82.56,484,82.08Z"/><path class="cls-14" d="M852.62,255.74a71.18,71.18,0,0,0,7.59-.06c2.83-.3,4.37.79,5.93,3.15,13.44,20.32,27.05,40.53,40.6,60.78.45.66.91,1.3,1.35,1.93a1.52,1.52,0,0,0,.29-.07c.06,0,.16-.09.16-.13,0-21.74,0-43.48,0-65.52,1.84,0,3.55-.07,5.27-.08s3.5,0,5.21,0c.49,1.81.66,80.95.18,85-1.67,0-3.4,0-5.13,0-2.06,0-4.13-.13-6.19-.2-1.14-1.64-2.31-3.25-3.42-4.91l-39.33-58.75c-.44-.65-.89-1.3-1.31-1.93a2.11,2.11,0,0,0-.31.06s-.13.1-.13.16v65.48c-1.94,0-3.66.08-5.38.09s-3.49,0-5.39,0Z"/><path class="cls-14" d="M583,340.71c-3.56,0-7,0-10.41,0a2.55,2.55,0,0,1-1.53-.88,14.28,14.28,0,0,1-1.35-2l-40.92-61.11a5,5,0,0,0-1.7-1.75v65.62H516.28V255.74c3.6,0,7.1,0,10.6,0,1,0,1.32.76,1.75,1.4l11.6,17.32q15.12,22.6,30.26,45.19c.44.66.9,1.3,1.34,1.93a1.14,1.14,0,0,0,.3-.12s.12-.1.12-.16V255.8c3.61-.12,7.08,0,10.5-.06C583.25,257.6,583.44,336,583,340.71Z"/><path class="cls-15" d="M809.11,255.88c11.49,28.17,23,56.28,34.59,84.77l-6.42.06c-2.07,0-4.14,0-6.39,0-3.27-8.51-6.52-17-9.82-25.6H785.28c-3,8.45-6.13,17-9.22,25.53h-12c10.88-28.32,21.7-56.49,32.57-84.76Zm8.34,49.84-14.92-40.37c-3.19,13.9-9.2,26.81-13.76,40.37Z"/><path class="cls-16" d="M623.69,265.72h-28v-9.81h67.18c0,2.89,0,5.67,0,8.45,0,.38-.07.76-.12,1.3h-27.9v74.93H623.69Z"/><path class="cls-1" d="M707.16,255.85h11.07v74.8h41.65v9.69c-1.68.46-48.58.63-52.72.17Z"/><path class="cls-17" d="M676.51,255.83h11v84.72h-11Z"/><path class="cls-1" d="M496.42,340.6H485.36V255.88h11.06Z"/><path class="cls-18" d="M817.45,305.72H788.77c4.56-13.56,10.57-26.47,13.76-40.37Z"/></g></g></svg>