<svg xmlns="http://www.w3.org/2000/svg" viewBox="0 0 800.04 215.4"><defs><style>.cls-1{opacity:0.5;}</style></defs><g id="Layer_2" data-name="Layer 2"><g id="Layer_1-2" data-name="Layer 1"><path d="M660.65,133.49c-21.34-30-42.48-59.64-63.8-89.57-.43,2.36-.81,4.42-1.18,6.49q-2.85,16-5.68,32-2.7,15.18-5.38,30.37-1.44,8.17-2.91,16.35c-.06.3-.44.78-.67.78-5.7,0-11.41,0-17.27,0C571.38,86.73,579,43.65,586.64.25c21.43,30.11,42.7,60,64.16,90.11,5-29.11,10-57.9,15-86.72h17.78C675.92,46.87,668.31,90,660.65,133.49Z"/><path d="M318,130.68H303.19c-2.44,0-4.88-.09-7.32,0a1.63,1.63,0,0,1-1.77-1.15Q283.21,106,272.27,82.56c-.18-.39-.37-.78-.62-1.29l-7.26,9.37q-11.58,14.91-23.13,29.82c-1.27,1.64-2.39,3.4-3.54,5.13-2.76,4.16-6.61,5.76-11.53,5.13a44.4,44.4,0,0,0-5-.11h-2.4c.53-3,1-5.93,1.55-8.85l4.92-28,4.92-28,4.68-26.61q2.46-14,4.91-28c.37-2.08.7-4.16,1.12-6.23.08-.37.49-.94.75-.94,5.67-.06,11.35,0,17.19,0C258.43,6,258.08,8,257.72,10l-5.4,30.48L247.16,69.7c-1.21,6.79-2.42,13.57-3.59,20.37,0,.32.27.71.51,1.31l7.29-9.65L307.53,7.35a8.37,8.37,0,0,1,6.56-3.49c5.43-.19,10.86-.13,16.3-.17a6.66,6.66,0,0,1,.92.14L271.86,81.06Z"/><path d="M203.46,130.12H188.05c-2.69,0-2.69,0-3.42-2.58-2.07-7.23-4.15-14.46-6.17-21.71-.3-1.06-.7-1.44-1.85-1.43-16.52.06-33,.12-49.55,0a6.66,6.66,0,0,0-6.2,3.44q-5.14,8.14-10.34,16.27c-.73,1.15-1.43,2.31-2.23,3.4a5.67,5.67,0,0,1-4.7,2.67c-5.68,0-11.35,0-17.26,0L167.68.24C179.64,43.67,191.52,86.8,203.46,130.12ZM173.81,88.67l-12.58-47c-9.52,15.82-18.88,31.35-28.33,47Z"/><path d="M431.53,130.26,512.9.22c12,43.43,23.85,86.59,35.77,129.89h-1.29c-5.19,0-10.39,0-15.59,0-1,0-1.35-.35-1.6-1.25-2.17-7.75-4.41-15.48-6.58-23.23-.25-.9-.57-1.26-1.6-1.26-16.51.06-33,.14-49.54,0a6.92,6.92,0,0,0-6.41,3.56q-5.16,8.06-10.31,16.14c-.5.77-1,1.52-1.51,2.31a7.07,7.07,0,0,1-6.35,3.81ZM519,88.66,506.48,41.6,478.11,88.66Z"/><path d="M764.27,0c12,43.43,23.85,86.6,35.77,129.84h-18.1c-1.06-3.7-2.13-7.4-3.18-11.1-1.29-4.52-2.59-9-3.84-13.56a1.14,1.14,0,0,0-1.3-1q-25.61.08-51.21.07c-2.33,0-3.67,1.44-4.77,3.14-3.6,5.56-7.12,11.18-10.68,16.76-3.73,5.85-3.93,6-10.9,6-4.31,0-8.62,0-13.23,0Zm6.13,88.41c-4.19-15.65-8.35-31.21-12.58-47-9.51,15.79-18.88,31.34-28.32,47Z"/><path d="M432.2,16l-10,12.86c-1.93-1.26-3.76-2.53-5.66-3.69-6.38-3.87-13.18-6.67-20.67-7.39-8.1-.78-16,0-23.07,4.46-5,3.16-8.59,7.44-9.6,13.42-1.15,6.84,1.39,12.21,7.07,16.08,3.28,2.24,7.1,3.24,10.85,4.31,6,1.73,12.11,3.17,18.06,5.1,8.86,2.86,16.27,7.94,21,16.14,7,12.15,5.93,24.16-1.76,35.62-6.13,9.13-14.95,14.61-25.51,17.25-17.61,4.42-34.6,2.71-50.75-5.8a40.91,40.91,0,0,1-10.45-8c-.44-.46-.84-1-1.29-1.47q5.36-6.27,10.56-12.4c2.13,1.62,4.1,3.25,6.2,4.7a51,51,0,0,0,33.12,8.83c6.23-.41,12.05-2,17.12-5.74,6.33-4.66,9.46-10.93,8.74-18.83a13.75,13.75,0,0,0-7.32-11,63.1,63.1,0,0,0-13.32-5.25c-5.86-1.81-11.82-3.35-17.62-5.34-8.56-3-15.51-8.1-19.7-16.31-4.91-9.62-4.36-19.34.58-28.72C355.37,12.25,365.83,4.45,380,2.15c18.89-3.08,36.08,1,51.2,13C431.48,15.38,431.78,15.65,432.2,16Z"/><path d="M40,3.7c-6.5,36.81-13,73.55-19.52,110.46h60c-.84,5.38-1.65,10.59-2.47,15.88H0c.42-2.43.83-4.84,1.25-7.24q2.47-14,4.93-28t4.91-28q2.46-14,4.93-28t4.91-28c.36-2.08.75-4.16,1.08-6.24.1-.59.23-.93.95-.93,5.55,0,11.11,0,16.67,0A1.45,1.45,0,0,1,40,3.7Z"/><g class="cls-1"><path d="M332,184.59c1,.39,1.66.64,2.32.92a13.32,13.32,0,0,1,8.19,14.36,22.08,22.08,0,0,1-1.22,5c-2.24,5.72-6.9,8.25-12.65,9.1a53.49,53.49,0,0,1-7.16.49c-6.59.07-13.19,0-19.79.05-1.14,0-1.42-.37-1.42-1.44q0-26.67,0-53.34c0-1.05.25-1.45,1.41-1.44,6.88.05,13.75,0,20.63.05a22.9,22.9,0,0,1,9.57,1.84,13.19,13.19,0,0,1,7.9,11.07c.58,5.47-1.78,9.67-6.47,12.55Zm-24.55,13.63c0,2.88,0,5.75,0,8.63,0,1,.29,1.31,1.29,1.3,4.72,0,9.43,0,14.15,0a29.84,29.84,0,0,0,5-.51,9,9,0,0,0,7.33-8.6c.2-4.82-2.17-8.54-6.5-9.69a31,31,0,0,0-6.85-.93c-4.35-.14-8.71,0-13.07-.07-1.08,0-1.36.38-1.35,1.4C307.48,192.55,307.44,195.38,307.44,198.22Zm0-24.93c0,2.55,0,5.11,0,7.66,0,.75.21,1.08,1,1.07,5.5-.11,11-.09,16.51-.29a7.86,7.86,0,0,0,7.58-5.87c1.4-6.16-2-10.77-8.35-11-5.18-.21-10.37-.16-15.56-.27-1,0-1.23.39-1.21,1.29C307.47,168.34,307.44,170.82,307.45,173.29Z"/><path d="M642.51,186.34c0-8.86,0-17.73,0-26.59,0-1.12.24-1.51,1.44-1.51,7.2.06,14.39-.05,21.59.08a47.39,47.39,0,0,1,8.3.92c5.83,1.16,9.39,4.91,10.87,10.55a17.49,17.49,0,0,1-3.12,15.82c-2.31,3-5.54,4.41-9.11,5a49.35,49.35,0,0,1-7.48.73c-4.51.11-9,0-13.55,0-1.79,0-1.8,0-1.8,1.75,0,6.59,0,13.18,0,19.77,0,1.22-.34,1.61-1.55,1.52a36.63,36.63,0,0,0-4.32,0c-1,0-1.3-.28-1.29-1.28,0-4.75,0-9.5,0-14.26Zm7.11-11.47v9c0,.67,0,1.29,1,1.27,5.94-.1,11.9,0,17.83-.29,4.77-.21,8-2.8,9-6.9a16.85,16.85,0,0,0,.37-4.14,9.08,9.08,0,0,0-7.37-8.79,24.89,24.89,0,0,0-4.4-.37c-5,0-10.07,0-15.1,0-1,0-1.34.33-1.32,1.31C649.65,168.89,649.62,171.88,649.62,174.87Z"/><path d="M729,214.44c-2.19,0-4.21,0-6.24,0-.32,0-.79-.53-.9-.9-.41-1.28-.7-2.59-1.07-4.05-.43.3-.83.54-1.18.83a21.3,21.3,0,0,1-14.24,5.08c-3.43-.07-6.77-.68-9.54-3a11.25,11.25,0,0,1,.92-17.95c3-2,6.36-2.6,9.81-3.13,4.21-.65,8.39-1.44,12.59-2.16a1.34,1.34,0,0,0,1.26-1.66c-.11-1-.06-2-.2-3-.44-3.15-2.54-4.77-5.4-5.54a18.64,18.64,0,0,0-8.66-.13c-3.35.69-5.22,2.93-6.15,6-.34,1.15-.85,1.39-2,1.12a27,27,0,0,0-4-.56c-.81-.07-.91-.41-.73-1.1,1.17-4.58,3.71-8.05,8.25-9.71a27.58,27.58,0,0,1,18.2-.46c4.91,1.58,7.31,5.14,7.35,10.3,0,5.67-.08,11.35.07,17,.09,3.37.53,6.74.91,10.1A15.4,15.4,0,0,0,729,214.44Zm-8.82-20.27c-2.18.53-4.32,1.12-6.49,1.57-3.35.69-6.76,1.15-10.08,1.95a5.84,5.84,0,0,0-4.61,5.57,5.91,5.91,0,0,0,4.39,6.24,17.4,17.4,0,0,0,5.53.52c6.21-.37,10.22-3.92,11.21-10A36.29,36.29,0,0,0,720.17,194.17Z"/><path d="M531.69,202.45a16.69,16.69,0,0,1-6.45,9.69c-6.57,4.66-17.59,4.26-23.81-.86a17.94,17.94,0,0,1-6.35-11.6,31,31,0,0,1,.94-14.44,17.6,17.6,0,0,1,15.77-12.19c6.82-.44,12.42,1.64,16.48,7.27a19.86,19.86,0,0,1,3.5,10c.12,1.35.11,2.71.25,4.06.1,1.06-.27,1.36-1.33,1.36-9-.05-18.08,0-27.11,0-2.29,0-2.42.05-1.86,2.28a25.52,25.52,0,0,0,2.06,6.18c3.45,6.16,12.09,7.74,17.25,3.17a17.77,17.77,0,0,0,3.25-4.66c.47-.83.87-1.21,1.81-1.06C527.89,201.94,529.71,202.17,531.69,202.45Zm-29.64-12.16h22.76c-.06-6.75-4.34-11.9-11.22-11.94C507,178.32,501.53,184,502.05,190.29Z"/><path d="M771.28,190.26c.33-.32.69-.62,1-.94q7.2-7.31,14.38-14.62a2.57,2.57,0,0,1,2.09-.87c2.35,0,4.71,0,7.27,0-.34.38-.55.64-.79.87-4.52,4.41-9,8.83-13.59,13.2a1.35,1.35,0,0,0-.24,2.08c5.24,7.74,10.42,15.52,15.61,23.29.21.32.4.66.7,1.14-2.68,0-5.18,0-7.68,0-.38,0-.82-.57-1.08-1q-6.06-9.21-12.07-18.45c-.27-.43-.57-.84-1-1.44-1.65,1.62-3.23,3.13-4.75,4.7-.22.22-.17.75-.17,1.14,0,4.59,0,9.19,0,13.78,0,1-.21,1.38-1.25,1.32a36.79,36.79,0,0,0-4.2,0c-1,.06-1.3-.36-1.21-1.25a3.84,3.84,0,0,0,0-.48V160c0-1.72,0-1.72,1.69-1.72,1.23,0,2.48.07,3.71,0,1-.07,1.26.35,1.26,1.31,0,9.35,0,18.7,0,28.05v2.5Z"/><path d="M399.92,201.47c.21.74.38,1.39.6,2a8.68,8.68,0,0,0,8.19,6.27,32.45,32.45,0,0,0,6.74-.54,6.05,6.05,0,0,0,4.22-3.44c1.42-2.79.5-5.6-2.42-6.69-2.57-1-5.25-1.61-7.88-2.4s-5.08-1.42-7.53-2.34c-4.84-1.82-7.18-5.12-7.2-9.79a10.73,10.73,0,0,1,7.17-10.2,22.45,22.45,0,0,1,17.8.76,10.53,10.53,0,0,1,5.79,9.08l-6.35.9a8.34,8.34,0,0,0-2.92-5.05,9.22,9.22,0,0,0-6-1.68,32.16,32.16,0,0,0-5,.61,4.7,4.7,0,0,0-1.64.72,4.63,4.63,0,0,0-2.5,4.21,4.17,4.17,0,0,0,2.8,3.85c1.91.76,3.93,1.28,5.91,1.88,3.46,1.07,7,2,10.4,3.19,7.09,2.36,8.45,9.63,5.62,15-2.11,4-5.72,6-10,6.93a25,25,0,0,1-12.55-.47c-5.51-1.64-8.42-5.62-9.65-11-.14-.62,0-.86.68-.95C396.11,202.1,398,201.78,399.92,201.47Z"/><path d="M584,201.47c.13.51.24.89.33,1.28a8.93,8.93,0,0,0,8.61,7,32.22,32.22,0,0,0,6.5-.52,6.11,6.11,0,0,0,4.1-3.08c1.72-2.82.82-5.92-2.26-7.09-2.56-1-5.25-1.6-7.88-2.4s-5.13-1.47-7.64-2.38c-4.1-1.49-6.68-4.35-7-8.81-.39-5,2-8.61,6.4-10.8a19.29,19.29,0,0,1,9.79-1.69,23.36,23.36,0,0,1,8.24,1.85c4,1.76,5.71,5.07,6.37,9.34l-6.38.9-.37-1.19a7.32,7.32,0,0,0-7-5.4,29.51,29.51,0,0,0-6.51.53,6.59,6.59,0,0,0-3.21,2.09,3.93,3.93,0,0,0,.85,6,17.62,17.62,0,0,0,4.27,1.76c4.34,1.35,8.74,2.5,13,3.94,7.23,2.42,8.22,9.67,5.72,14.75-1.93,3.91-5.29,6-9.36,7a25.08,25.08,0,0,1-12.9-.19c-5.75-1.56-8.83-5.56-10-11.2a1,1,0,0,1,.54-.84C580.11,202.06,582,201.79,584,201.47Z"/><path d="M544.55,201.48c.28.91.48,1.76.8,2.56a8.38,8.38,0,0,0,5.87,5.35,16,16,0,0,0,8.74-.07,7.08,7.08,0,0,0,4.06-3c1.84-2.83.93-6.13-2.24-7.27s-6.34-1.87-9.5-2.83c-2.21-.67-4.45-1.31-6.58-2.19a9.61,9.61,0,0,1-6.42-9,10.35,10.35,0,0,1,5.35-9.78A16.9,16.9,0,0,1,555,173a36.26,36.26,0,0,1,7.6,1.42c4.64,1.42,6.82,5,7.5,9.75l-6.32.9a9.27,9.27,0,0,1-.35-.92,7.27,7.27,0,0,0-6.3-5.62,16.57,16.57,0,0,0-7.24.39,6.11,6.11,0,0,0-1,.37c-1.85.94-3.22,2.27-3.19,4.51s1.44,3.51,3.35,4.23c1.74.65,3.58,1.06,5.37,1.6,3.48,1.05,7,2,10.41,3.2,7,2.42,8.1,9.07,5.95,14.22-1.61,3.89-4.76,6.15-8.69,7.3a24.47,24.47,0,0,1-14.62-.19c-5.3-1.68-8-5.65-9.22-10.85a1.11,1.11,0,0,1,.54-.92C540.69,202.05,542.62,201.78,544.55,201.48Z"/><path d="M459.36,179.36c.21-.23.43-.45.62-.69,3.44-4.44,8.09-6.1,13.52-5.56a21.33,21.33,0,0,1,6,1.49c3.88,1.59,5.72,4.84,6.2,8.85a59.68,59.68,0,0,1,.28,6.69c0,7.55,0,15.1,0,22.64,0,1.66,0,1.66-1.71,1.66-1.16,0-2.32-.06-3.48,0s-1.43-.25-1.42-1.38q.08-11.69,0-23.37a25.55,25.55,0,0,0-.44-4.86,7.26,7.26,0,0,0-7-6.1,15.29,15.29,0,0,0-4.38.38c-4.41,1.15-7,4.38-7.5,9-.16,1.62-.24,3.26-.25,4.89q0,10.13,0,20.25c0,.88-.24,1.22-1.15,1.17-1.2-.07-2.4,0-3.6,0-1.9,0-1.9,0-1.9-1.85V193.3c0-6,0-12,0-18,0-1.11.26-1.61,1.46-1.5a26.94,26.94,0,0,0,3.48,0c.8,0,1,.29,1,1.06-.05,1.46,0,2.93,0,4.39Z"/><path d="M379.12,209.1c-1.26,1-2.5,2.1-3.77,3.12-5.14,4.12-13.72,4.16-18.9.11a10.52,10.52,0,0,1-3.93-7.54c-.32-3.13-.29-6.3-.31-9.45,0-6.59,0-13.18,0-19.78,0-1.71,0-1.71,1.78-1.71,1.2,0,2.4.05,3.59,0,.94-.06,1.25.25,1.24,1.21-.05,3.56,0,7.11,0,10.67,0,4.23,0,8.47,0,12.7a27.81,27.81,0,0,0,.41,5,7.49,7.49,0,0,0,6.67,6.12,11.68,11.68,0,0,0,7.58-1.62,9.69,9.69,0,0,0,4.64-8.57c.18-7.91.19-15.81.26-23.72,0-2-.16-1.76,1.83-1.77,1.24,0,2.48,0,3.72,0,.78,0,1.06.25,1.05,1,0,1.88,0,3.76,0,5.64,0,10.82,0,21.65,0,32.48,0,1.12-.26,1.59-1.45,1.49a28.85,28.85,0,0,0-3.48,0c-.73,0-1-.24-1-1,0-1.36,0-2.72,0-4.07a5.09,5.09,0,0,0-.12-.66Z"/><path d="M743.87,179.94a6.36,6.36,0,0,0,.67-.64c.25-.36.48-.74.7-1.11,3.38-5.78,8-6.41,13.7-3.64.69.34,1,.67.61,1.47-.71,1.64-1.3,3.33-2,5-1.1-.35-2.09-.73-3.12-1-3.78-.93-7.36.87-8.44,4.6a33.58,33.58,0,0,0-1.37,8.32c-.2,6.66-.1,13.34,0,20,0,1.17-.35,1.52-1.49,1.45a37,37,0,0,0-4.08,0c-.76,0-1.09-.22-1-1,0-1.16,0-2.32,0-3.48V175.45c0-1.6,0-1.6,1.65-1.6,1,0,2.08,0,3.12,0,.82,0,1.14.23,1.11,1.09C743.83,176.47,743.87,178,743.87,179.94Z"/><path d="M442.27,194.23v18.68c0,1.53,0,1.53-1.59,1.53-1.32,0-2.64,0-4,0-.85,0-1.11-.32-1.1-1.12,0-2.84,0-5.67,0-8.51,0-9.81,0-19.63,0-29.45,0-1.18.27-1.66,1.53-1.56a27.41,27.41,0,0,0,3.95,0c1-.07,1.2.33,1.19,1.24C442.25,181.46,442.27,187.84,442.27,194.23Z"/><path d="M442.27,162.09c0,.92,0,1.84,0,2.76,0,.71-.23,1-1,1q-2.34,0-4.68,0c-.7,0-1-.26-1-1,0-1.91,0-3.83.05-5.75a1.19,1.19,0,0,1,.82-.81c1.63-.08,3.28,0,4.91-.05.72,0,.88.33.86,1C442.25,160.18,442.27,161.14,442.27,162.09Z"/></g></g></g></svg>